<svg xmlns="http://www.w3.org/2000/svg" viewBox="0 0 64 64" fill="none">
  <rect width="64" height="64" rx="16" fill="url(#grad)"/>
  <path d="M20 14H36L44 22V50C44 52.2091 42.2091 54 40 54H20C17.7909 54 16 52.2091 16 50V18C16 15.7909 17.7909 14 20 14Z" fill="white" fill-opacity="0.95"/>
  <path d="M36 14V22H44" fill="#E0E7FF"/>
  <rect x="22" y="26" width="16" height="3.5" rx="1.75" fill="#4F46E5"/>
  <rect x="22" y="33" width="20" height="3.5" rx="1.75" fill="#4F46E5"/>
  <rect x="22" y="40" width="14" height="3.5" rx="1.75" fill="#4F46E5"/>
  <circle cx="42" cy="42" r="7" fill="#6366F1"/>
  <path d="M40 42L41.5 43.5L44.5 40.5" stroke="white" stroke-width="1.8" stroke-linecap="round" stroke-linejoin="round"/>
  <defs>
    <linearGradient id="grad" x1="0" y1="0" x2="64" y2="64" gradientUnits="userSpaceOnUse">
      <stop stop-color="#4F46E5"/>
      <stop offset="1" stop-color="#312E81"/>
    </linearGradient>
  </defs>
</svg>